<?xml version="1.0" ?><svg viewBox="0 0 1000 1000" xmlns="http://www.w3.org/2000/svg"><path d="m553.14 720.47c12.37-4.76 24.9-9.61 35.61-17.42s19.58-19 21.61-32.15c.63-4-.21-9.33-4.18-10.35l-1.55-19.23-21.07-10.4-43.77 14.08-16.41 35.2v42.89" fill="#fff"/><path d="m553.31 721.07c12.86-4.89 26-9.87 37.1-18.26 9.52-7.21 17.6-17.16 20.38-29 1.11-4.7 1.69-12.63-4.34-14.27a1 1 0 0 0 -.54 2c4.92 1.51 3.72 8.85 2.82 12.54a44.14 44.14 0 0 1 -7.13 15.08c-7.08 9.89-17.37 16.81-28.17 22.08-6.65 3.26-13.56 5.95-20.45 8.64-.74.29-.42 1.48.33 1.2z"/><path d="m500.16 704.84a168.09 168.09 0 0 1 11.09-36.43c4.63-10.64 10.19-21.12 19.3-28.59 8-6.58 17.89-10.61 28-12.84a95.64 95.64 0 0 1 15.8-2.09c2.59-.13 5.4-.41 7.94.25a5.62 5.62 0 0 1 4.34 5.68c.07 6.47-7.16 10.35-11.94 13.25a104.75 104.75 0 0 1 -18.94 9 1 1 0 0 0 -.56 1.39c7 10.68 4.64 25-4.19 33.89-.71.71.34 1.7 1.08 1.08 10.26-8.42 11.84-25.08 4.74-35.93l-.57 1.39a108.18 108.18 0 0 0 17.75-8.25 77.31 77.31 0 0 0 8-5.22 17.14 17.14 0 0 0 5.47-6.22c2.15-4.69.53-10.53-4.8-11.92-2.66-.69-5.55-.45-8.26-.32s-5.51.37-8.25.72c-11 1.43-21.94 4.68-31.35 10.7a53.67 53.67 0 0 0 -12.39 10.84 76.29 76.29 0 0 0 -9.92 16.25 159.34 159.34 0 0 0 -13.39 43.1c-.1.63.86.91 1 .27z"/><path d="m624.29 687.55h-54.29a9.5 9.5 0 0 1 -9.36-11.13l19.93-113.94a9.49 9.49 0 0 1 9.35-7.86h54.32a9.49 9.49 0 0 1 9.35 11.13l-19.95 113.94a9.49 9.49 0 0 1 -9.35 7.86z" fill="#18c4ff"/><path d="m624.29 686.08h-39.61c-4.89 0-9.79.07-14.68 0a8.11 8.11 0 0 1 -8-9.29c.11-.8.27-1.59.41-2.38l2.48-14.17 4-22.59 4.57-26.14 4.27-24.44 3.14-17.92.85-4.88a12.45 12.45 0 0 1 1.12-4c1.71-3.13 4.8-4.21 8.15-4.21h51.89c3 0 5.8.62 7.74 3.17a8.57 8.57 0 0 1 1.39 6.89l-2 11.38-3.68 21-4.5 25.77-4.42 25.28-3.5 20c-.55 3.17-1.09 6.34-1.66 9.51a8.19 8.19 0 0 1 -8 7c-1.89 0-1.9 3 0 2.94a11.09 11.09 0 0 0 10.78-9c.18-.92.32-1.84.49-2.76l2.65-15.19 4.13-23.61 4.7-26.69 4.28-24.52 2.93-16.75.67-3.83a11.42 11.42 0 0 0 -2.17-9.43c-2.37-3-5.8-4.07-9.46-4.07h-52.34c-3.62 0-7.08 1.05-9.45 4a12.49 12.49 0 0 0 -2.52 6l-2.16 12.34-3.86 22.07-4.62 26.44-4.45 25.46-3.36 19.2c-.46 2.64-1 5.29-1.37 8a11.05 11.05 0 0 0 10.5 12.34c1.44.05 2.89 0 4.33 0h50.34a1.47 1.47 0 0 0 0-2.92z"/><path d="m499.68 704.71a162.23 162.23 0 0 1 13.54-42.61 76.26 76.26 0 0 1 10.21-16.58c13-15.33 34.21-21.37 54.32-21.7 2.62-.05 5.48.07 7.51 1.74 2.66 2.18 2.86 6.39 1.31 9.47s-4.4 5.26-7.26 7.19a105.2 105.2 0 0 1 -23.31 11.78c7.09 10.65 5.08 26.38-4.46 34.91" fill="#fff"/><path d="m500.16 704.84a168.09 168.09 0 0 1 11.09-36.43c4.63-10.64 10.19-21.12 19.3-28.59 8-6.58 17.89-10.61 28-12.84a95.64 95.64 0 0 1 15.8-2.09c2.59-.13 5.4-.41 7.94.25a5.62 5.62 0 0 1 4.34 5.68c.07 6.47-7.16 10.35-11.94 13.25a104.75 104.75 0 0 1 -18.94 9 1 1 0 0 0 -.56 1.39c7 10.68 4.64 25-4.19 33.89-.71.71.34 1.7 1.08 1.08 10.26-8.42 11.84-25.08 4.74-35.93l-.57 1.39a108.18 108.18 0 0 0 17.75-8.25 77.31 77.31 0 0 0 8-5.22 17.14 17.14 0 0 0 5.47-6.22c2.15-4.69.53-10.53-4.8-11.92-2.66-.69-5.55-.45-8.26-.32s-5.51.37-8.25.72c-11 1.43-21.94 4.68-31.35 10.7a53.67 53.67 0 0 0 -12.39 10.84 76.29 76.29 0 0 0 -9.92 16.25 159.34 159.34 0 0 0 -13.39 43.1c-.1.63.86.91 1 .27z"/><path d="m651.4 554.62h-7.19a9.49 9.49 0 0 1 9.35 11.13l-19.92 113.94a9.49 9.49 0 0 1 -9.35 7.86h7.19a9.49 9.49 0 0 0 9.35-7.86l19.92-113.94a9.49 9.49 0 0 0 -9.35-11.13z"/><path d="m651.4 553.15h-7.19a1.47 1.47 0 0 0 0 2.94 8.12 8.12 0 0 1 8 7.6 11.28 11.28 0 0 1 -.21 2.4l-1.17 6.67-4.92 28.16-6.36 36.38-5.38 30.78-1.55 8.82c-.44 2.55-.79 5-2.79 6.94a8.1 8.1 0 0 1 -5.56 2.24 1.47 1.47 0 0 0 0 2.94h7.09a11.11 11.11 0 0 0 10.29-6.93 29.22 29.22 0 0 0 1.24-5.8l4.82-27.58 6.89-39.37 5.8-33.17 1.51-8.66.24-1.36a11 11 0 0 0 -10.77-13 1.47 1.47 0 0 0 0 2.94 8.11 8.11 0 0 1 8 8.28 14 14 0 0 1 -.25 1.93l-1.33 7.59-5.4 31.11-6.71 38.39-5.14 29.39c-.36 2.07-.71 4.15-1.08 6.22a8.5 8.5 0 0 1 -3.17 5.48c-2.62 2-5.83 1.6-8.91 1.6h-3.1v2.92c5.74-.1 10-4.23 10.91-9.73l1.23-7.06 5.19-29.67 6.55-37.49 5.29-30.26 1.33-7.58c.06-.36.13-.72.19-1.09a11 11 0 0 0 -10.77-13v2.94h7.19a1.47 1.47 0 0 0 0-2.91z"/><path d="m428.86 774.33a413.45 413.45 0 0 1 37.77-55c3.21-3.95 6.6-7.93 11-10.49s10.1-3.49 14.61-1.1c-1-.53 2.25-5.81 2.76-6.38a12.34 12.34 0 0 1 5.7-3.42c8.25-2.54 18.46.35 26.5 2.53 11.82 3.21 32 8.66 34.38 23 .63 3.87-.59 8.2-3.71 10.57 4.79 5.31 6.3 13 5.5 20.08s-3.63 13.82-6.63 20.32"/><path d="m429.35 774.62q9.64-16.68 20.8-32.4 5.6-7.87 11.54-15.47c3.71-4.73 7.35-9.74 11.8-13.82 4.81-4.41 12-7.69 18.33-4.48a.86.86 0 0 0 .86-1.48c.31.22.09.31.25.13a1.63 1.63 0 0 0 .14-.49 12 12 0 0 1 .73-1.64 26.68 26.68 0 0 1 1.58-2.69c1.74-2.6 5.63-3.8 8.74-4.25 7.8-1.13 15.77 1.31 23.22 3.34a131.77 131.77 0 0 1 15.28 4.88c5.11 2.08 10.27 4.8 14 9 4.36 4.88 6.56 13.49.65 18.17a.87.87 0 0 0 0 1.22c10 11.31 4.22 27.44-1.26 39.35-.47 1 1 1.89 1.49.87 3.28-7.13 6.44-14.57 6.9-22.5.38-6.78-1.34-13.78-5.91-18.94v1.22c5.54-4.39 4.86-12.57 1.35-18-3.34-5.17-8.89-8.55-14.4-11a117.53 117.53 0 0 0 -17.27-5.79c-8.07-2.19-16.69-4.81-25.12-3.34-3.63.63-7.42 2.18-9.46 5.41-.82 1.31-3.64 5.2-1.77 6.57l.86-1.48c-5.21-2.64-11.4-1.47-16.19 1.56-5.25 3.33-9.08 8.48-12.89 13.29a402.66 402.66 0 0 0 -23.45 32.79q-6.15 9.55-11.77 19.44a.56.56 0 0 0 1 .57z"/><path d="m378.74 627.81q4.53-11.43 9.36-22.74 2.36-5.54 4.77-11c.79-1.8 1.57-3.6 2.36-5.39a58.91 58.91 0 0 0 2.42-5.61.82.82 0 0 0 -1.5-.63 57.29 57.29 0 0 0 -2.6 5.82q-1.11 2.58-2.21 5.16-2.37 5.65-4.69 11.32-4.62 11.35-9 22.78c-.27.71.86 1 1.14.31z"/><g fill="#18c4ff"><path d="m298.25 581.32c23.93 3.07 61.79 15.46 82.6 27.67 8.59 5 17.85 13.33 15.62 23-1.21 5.29-5.8 9.93-4.92 15.29.8 4.81 5.61 7.7 9.91 10 23.5 12.61 46.5 27.26 63.61 47.72s28.74 43.21 24.39 69.53h-464.46s17.47-140.33 111-153.46"/><path d="m298.25 581.88c18.57 2.46 36.93 8.12 54.38 14.8a201.67 201.67 0 0 1 24.86 11.21c7.72 4.23 18.35 11 18.59 20.89.13 5.08-3.3 9-4.77 13.61a10.17 10.17 0 0 0 2.4 10.48c3.14 3.31 7.62 5.21 11.55 7.38 4.76 2.62 9.47 5.32 14.11 8.15 18.33 11.2 35.27 24.49 48.57 41.47 14.47 18.46 24.51 40.59 20.7 64.48l.82-.63h-46.24-50-61-300.22a55.93 55.93 0 0 0 -6.21 0 6.94 6.94 0 0 1 -.79 0l1 1c.05-.4 0-.14.1-.78l.42-2.77c.55-3.44 1.19-6.86 1.88-10.28a304.87 304.87 0 0 1 9-33.88 240.85 240.85 0 0 1 18-42c7.92-14.27 17.67-27.68 29.86-38.61a98.08 98.08 0 0 1 44.44-23.3c2.17-.47 4.36-.87 6.56-1.18 1.11-.16.64-1.85-.46-1.69a96.88 96.88 0 0 0 -46.67 20.14c-12.94 10.22-23.41 23.29-31.92 37.35a228.37 228.37 0 0 0 -19.82 42.88 302.1 302.1 0 0 0 -10.19 36.3c-.83 3.89-1.6 7.8-2.26 11.72-.3 1.77-1 3.9-.87 5.7a2 2 0 0 1 0 .26 1 1 0 0 0 1 1h291.49 62.67 53.16 38.22c6 0 12 .08 18.06 0h.79a.87.87 0 0 0 .83-.62c3.27-20.58-3.3-40.23-14.74-57.23-12-17.87-27.86-32.36-45.69-44.3-9.23-6.17-18.88-11.59-28.62-16.91-4.62-2.54-10.12-6.16-8.87-12.26 1-4.73 4.48-8.52 5.06-13.39 1.06-8.9-6.58-16-13.28-20.5-7.36-4.92-15.69-8.58-23.85-12-19.74-8.14-40.82-14.78-62.05-17.52-.73-.09-.72 1 0 1.13z"/><path d="m723.72 498.24a44.53 44.53 0 1 0 30.39 80.35 47.54 47.54 0 0 0 5.29-4.53 44.53 44.53 0 0 0 -35.68-75.82z"/><path d="m835.06 452a172.35 172.35 0 0 0 -20.61-17.12 120.86 120.86 0 0 0 -16.3-10c-5-2.53-10.13-4.63-15.28-6.78q-4.32-1.8-8.78-3.28a121.94 121.94 0 0 0 -18.09-4.45c-14.71-2.47-29.39-3.62-44.23-1.68-8.69 1.14-17.24 2.35-25.67 4.79a171.09 171.09 0 0 0 -24.26 9.39 120.07 120.07 0 0 0 -16.6 9.31c-4.67 3.12-9.09 6.61-13.5 10.07-2.57 2-5.07 4.15-7.47 6.38q-1.8 1.65-3.52 3.38a32.67 32.67 0 0 0 -8.61 20.79 32.73 32.73 0 0 0 8.61 20.8l6 4.6a29.33 29.33 0 0 0 14.84 4l7.82-1a29.47 29.47 0 0 0 13-7.56q4.23-4.22 8.84-8a92.51 92.51 0 0 1 44.23-18.49 124 124 0 0 1 25 0 123.1 123.1 0 0 1 23.69 6.48 122.68 122.68 0 0 1 20.54 12q4.61 3.8 8.84 8a28.44 28.44 0 0 0 32.12 6.08 22.09 22.09 0 0 0 9.47-6.08q2.3-3 4.6-6a29.33 29.33 0 0 0 4-14.85l-1-7.81a29.42 29.42 0 0 0 -7.68-12.97z"/><path d="m907.86 399.74a29.25 29.25 0 0 0 -7.56-13 265.26 265.26 0 0 0 -31.82-26.7 213.66 213.66 0 0 0 -28.48-17.38c-21.56-11-44.71-19.26-68.61-23.27s-47.78-5.31-71.78-2.17c-13.31 1.75-26.42 3.92-39.33 7.65a265 265 0 0 0 -37.25 14.25 212.28 212.28 0 0 0 -29 16.24 262.87 262.87 0 0 0 -32.46 25.51q-3.12 2.89-6.13 5.9a22 22 0 0 0 -6.08 9.46 26.54 26.54 0 0 0 0 22.66 22 22 0 0 0 6.08 9.47c5.6 5.14 13 9 20.79 8.61l7.82-1.05a29.47 29.47 0 0 0 13-7.56 217.34 217.34 0 0 1 17.76-15.88 182.17 182.17 0 0 1 79.8-35.41c2.85-.55 5.71-1 8.58-1.46a216.1 216.1 0 0 1 40.69-.84c3 .23 6 .54 8.95.88a214.89 214.89 0 0 1 39 9.8c2.65.94 5.27 1.95 7.88 3a214.71 214.71 0 0 1 41.18 24 217.34 217.34 0 0 1 17.76 15.88 28.45 28.45 0 0 0 32.13 6.08 22.15 22.15 0 0 0 9.46-6.08c5.15-5.61 9-13 8.61-20.8z"/><path d="m975 341.5c-.35-7.8-3-15.18-8.62-20.8a351.11 351.11 0 0 0 -42.53-35.78 296.76 296.76 0 0 0 -40.57-24.64c-29.65-14.92-61.4-25.84-94.19-31.14a359.17 359.17 0 0 0 -53.27-4.94c-17.94-.2-35.66 1.48-53.42 3.94-33.2 4.59-65.07 14.91-95.39 29.08-31.32 14.64-60.21 34.74-85.55 58.21q-4.47 4.15-8.79 8.46a30.33 30.33 0 0 0 -8.67 20.79c0 7.22 3.2 15.83 8.61 20.8 5.6 5.14 13 9 20.79 8.61s15.16-3 20.8-8.61a321.41 321.41 0 0 1 26.65-23.79 311.7 311.7 0 0 1 50.29-31.05q5.85-2.88 11.82-5.5a309.82 309.82 0 0 1 58.27-17.5c4.37-.85 8.77-1.6 13.17-2.27a309.31 309.31 0 0 1 60.61-1.54q6.69.5 13.36 1.28a304 304 0 0 1 57.42 14.1c4.35 1.54 8.67 3.19 12.95 4.92a301.08 301.08 0 0 1 60 35 312 312 0 0 1 26 23.16 30.34 30.34 0 0 0 20.79 8.62c7.21 0 15.83-3.21 20.79-8.62 5.19-5.6 9.01-12.96 8.68-20.79z"/></g><g fill="#fff"><path d="m617.24 607a17.83 17.83 0 0 0 -1.38-2.39 11.4 11.4 0 0 0 -1.22-1.55c-.39-.43-.81-.81-1.23-1.21-.24-.22-.48-.43-.73-.63a12.35 12.35 0 0 0 -1.59-1.08 15.76 15.76 0 0 0 -4.22-1.75 17.06 17.06 0 0 0 -2.65-.45 18.57 18.57 0 0 0 -2.69 0 14.24 14.24 0 0 0 -1.94.31c-.56.13-1.11.31-1.66.49-.33.1-.64.22-1 .35l-.46.2a2.29 2.29 0 0 0 -.92.7 2.25 2.25 0 0 0 -.66 1 2.32 2.32 0 0 0 -.16 1.19 2.36 2.36 0 0 0 .25 1.13l.41.66a3 3 0 0 0 1.29.92l.8.18a2.94 2.94 0 0 0 1.52-.27c.38-.17.76-.32 1.15-.45a12.44 12.44 0 0 1 2.41-.43 13.37 13.37 0 0 1 2.53.22 12.94 12.94 0 0 1 2.41.9 12.09 12.09 0 0 1 2.06 1.48 12.85 12.85 0 0 1 1.56 1.89 11.45 11.45 0 0 1 .57 1.1 2.12 2.12 0 0 0 .7.92 2.28 2.28 0 0 0 1 .66 2.32 2.32 0 0 0 1.19.16 2.36 2.36 0 0 0 1.13-.25l.66-.41a3 3 0 0 0 .92-1.29l.18-.8a3.11 3.11 0 0 0 -.23-1.5z"/><path d="m626.16 604.59a3.11 3.11 0 0 0 -.27-1.53 26.82 26.82 0 0 0 -2.12-3.72 22.2 22.2 0 0 0 -2.12-2.71 25.21 25.21 0 0 0 -12.65-7.49 26.91 26.91 0 0 0 -4.08-.67 28.33 28.33 0 0 0 -4.12 0 22.64 22.64 0 0 0 -3.38.53 27.33 27.33 0 0 0 -4 1.31l-.81.35a2.3 2.3 0 0 0 -.93.7 2.26 2.26 0 0 0 -.65 1 2.32 2.32 0 0 0 -.16 1.19 2.25 2.25 0 0 0 .25 1.13 3.06 3.06 0 0 0 1.7 1.58l.8.18a3.05 3.05 0 0 0 1.52-.27 23.64 23.64 0 0 1 2.29-.9 22.29 22.29 0 0 1 4.86-.84 22 22 0 0 1 4.13.28l.88.17a21.71 21.71 0 0 1 4 1.38c.28.12.56.26.83.4a22.29 22.29 0 0 1 3.42 2.35c.23.18.44.38.66.57a22.31 22.31 0 0 1 3.12 3.8 23.74 23.74 0 0 1 1.15 2.17 3.39 3.39 0 0 0 1.7 1.58 2.22 2.22 0 0 0 1.19.16 2.24 2.24 0 0 0 1.13-.24 3.08 3.08 0 0 0 1.58-1.71z"/><path d="m634.74 601.36a3.11 3.11 0 0 0 -.09-2.32 35.57 35.57 0 0 0 -2.83-5 31.17 31.17 0 0 0 -3-3.83 33.3 33.3 0 0 0 -8-6.39 37.31 37.31 0 0 0 -5-2.39 36.24 36.24 0 0 0 -5.31-1.54 35 35 0 0 0 -20.63 2l-1.16.5a3.2 3.2 0 0 0 -1.58 1.7 3.15 3.15 0 0 0 .09 2.32 3 3 0 0 0 1.7 1.58 3.18 3.18 0 0 0 2.33-.08 27.7 27.7 0 0 1 9.41-2.55c.44-.05.89-.08 1.33-.11a32.08 32.08 0 0 1 6.27.4c.45.07.91.16 1.36.25a31.74 31.74 0 0 1 5.91 2c.42.19.84.39 1.25.6a32 32 0 0 1 5.05 3.42c.36.31.72.62 1.07.94a30.93 30.93 0 0 1 4.55 5.54 32.1 32.1 0 0 1 1.69 3.17 3.1 3.1 0 0 0 1.7 1.58 3 3 0 0 0 3.9-1.79z"/></g><path d="m423.83 374.37c2.88 5 4.26 10.8 5.29 16.44 1.28 7.06 1.94 14.22 2.59 21.36.67 7.49 1.25 15 2.16 22.47a116.89 116.89 0 0 0 3.83 20.05c1.69 5.52 4.11 10.75 8.2 14.89 3.15 3.19 7.35 6.58 7 11.56-.38 4.77-6.09 4.82-8.07 8.58s-1.55 8.17-1.22 12.15c.46 5.33.77 10.67.9 16 .26 11.08 0 22.5-2.39 33.37-2.12 9.76-6.43 19.34-14.45 25.65-6.71 5.27-15.74 8.27-24.26 6.76a24.69 24.69 0 0 1 -5.93-1.83c-1-.47-1.9 1-.88 1.5 7.86 3.6 16.82 3 24.61-.51a37.84 37.84 0 0 0 18.95-19.62c4.44-10.06 5.55-21.25 6-32.12.25-5.86.21-11.73 0-17.59-.21-5.1-.83-10.18-1-15.27a18.16 18.16 0 0 1 .76-6.6c.83-2.35 2.57-3.24 4.62-4.39a7.53 7.53 0 0 0 3.78-4.22 9.39 9.39 0 0 0 -.23-5.9c-1.55-4.37-5.55-7-8.45-10.44a27.82 27.82 0 0 1 -4.14-6.82c-2.7-6-4-12.67-5.07-19.16-1.22-7.58-1.92-15.24-2.64-22.88-.7-7.42-1.38-14.85-2.52-22.22-1-6.19-2.2-12.47-4.72-18.24a31.1 31.1 0 0 0 -1.78-3.5.5.5 0 0 0 -.87.51z"/><path d="m413.06 447c-2.92.35-4 4.3-2.5 6.51a3.36 3.36 0 0 0 4.61 1.13c2.44-1.67 2.17-7.3-1.16-7.79"/><path d="m413.06 446.48a4.29 4.29 0 0 0 -3.76 3.3 5 5 0 0 0 1.5 5.16 4.23 4.23 0 0 0 3.25 1 3.73 3.73 0 0 0 2.42-1.4 6.13 6.13 0 0 0 1.06-4.79 4.09 4.09 0 0 0 -3.52-3.7.79.79 0 0 0 -.21 1.55l.22.07h.08c.14.05.27.12.4.18a2.92 2.92 0 0 1 .37.24c-.16-.12 0 0 0 .05l.21.2a1.71 1.71 0 0 1 .11.14c.09.11-.1-.17 0 0a3.48 3.48 0 0 1 .23.38 1.24 1.24 0 0 1 .1.2c.11.22-.05-.16 0 .07a4.48 4.48 0 0 1 .16.52 3.15 3.15 0 0 1 .09.42 1.29 1.29 0 0 1 0 .19c0-.19 0 .07 0 .09a6 6 0 0 1 0 1s0 .28 0 .09v.24s-.05.25-.09.38-.08.3-.13.45l-.09.21-.07.14a2.88 2.88 0 0 1 -.22.38l-.13.18c.12-.16 0 0-.05 0a3 3 0 0 1 -.25.25s-.2.16 0 .05l-.36.22a2.25 2.25 0 0 1 -2.05 0 3.14 3.14 0 0 1 -1.51-1.6 3.81 3.81 0 0 1 -.22-1.81 3.37 3.37 0 0 1 2.54-3.12.53.53 0 0 0 -.14-1z"/><path d="m408 457.88c4-1 8.08-2.11 12.18-1.31.84.16 1.18-1.13.35-1.27-4.35-.75-8.64.4-12.81 1.59a.51.51 0 0 0 .28 1z"/><path d="m399.87 431.36a30 30 0 0 1 10-6.7 18.47 18.47 0 0 1 11.37-1.3c.91.23 1.95.7 1.78 1.86a2.09 2.09 0 0 1 -1.59 1.66c-6.16 1.63-9.34 2.57-13.39 5.18-1.38.89-2.63 2.07-4.21 2.48s-7.21-.33-2.57-4.08"/><path d="m400.24 431.73a29.51 29.51 0 0 1 10.16-6.56 21 21 0 0 1 6.5-1.43c1 0 5.34-.17 5.24 1.36-.07 1-1.66 1.16-2.39 1.35-1 .26-1.92.52-2.87.8a42.32 42.32 0 0 0 -4.44 1.54 29.74 29.74 0 0 0 -3.91 2c-1.58.94-3.14 2.58-5 3a4.85 4.85 0 0 1 -2.64-.23c-1.49-.61.15-1.85.87-2.46s-.36-1.84-1.17-1.17c-1.07.89-2.55 2.32-1.86 3.87.48 1.08 1.81 1.48 2.89 1.64a6.05 6.05 0 0 0 4.09-.78c1.92-1.1 3.61-2.5 5.6-3.5a35.37 35.37 0 0 1 5.81-2.19c1.13-.34 2.28-.65 3.43-1a4.29 4.29 0 0 0 2.77-1.49c1.09-1.63.12-3.24-1.56-3.79a15.19 15.19 0 0 0 -7.37-.17 28.94 28.94 0 0 0 -14.89 8.48.52.52 0 0 0 .74.74z"/><g fill="#18c4ff"><path d="m401.42 462.91h.34.32.18a.54.54 0 0 0 .22-.05.36.36 0 0 0 .18-.12.35.35 0 0 0 .12-.19.4.4 0 0 0 .05-.22.59.59 0 0 0 -.17-.4.56.56 0 0 0 -.4-.17h-.18a1.75 1.75 0 0 0 -.32 0h-.34l-.12.05a.35.35 0 0 0 -.14.13.26.26 0 0 0 -.07.11.41.41 0 0 0 0 .19.52.52 0 0 0 .07.25.29.29 0 0 0 .13.14.26.26 0 0 0 .17.09z"/><path d="m406.54 464.87.69.74a.6.6 0 0 0 .8 0 .61.61 0 0 0 .17-.41.63.63 0 0 0 -.17-.4l-.74-.67a.52.52 0 0 0 -.37-.16.38.38 0 0 0 -.21 0 .45.45 0 0 0 -.17.11.53.53 0 0 0 0 .74z"/><path d="m401.29 467.83c.23.14.45.27.69.39l.7.36a.59.59 0 0 0 .43.06.63.63 0 0 0 .34-.26.54.54 0 0 0 .05-.43.52.52 0 0 0 -.25-.33l-.72-.35c-.23-.12-.48-.22-.72-.32a.56.56 0 0 0 -.4-.05.5.5 0 0 0 -.12.93z"/><path d="m395.17 466.9h.36a.34.34 0 0 0 .22 0 .55.55 0 0 0 .3-.3.34.34 0 0 0 .05-.22v-.15a.53.53 0 0 0 -.15-.26l-.11-.09a.6.6 0 0 0 -.29-.08h-.36a.5.5 0 0 0 -.21.05.39.39 0 0 0 -.19.12.42.42 0 0 0 -.11.18.34.34 0 0 0 -.05.22v.15a.48.48 0 0 0 .14.25l.12.09a.57.57 0 0 0 .28.08z"/><path d="m397.15 472.54 2.12.73a.59.59 0 0 0 .72-.41.61.61 0 0 0 -.41-.73l-2.13-.68a.57.57 0 0 0 -.7.39.58.58 0 0 0 .4.7z"/><path d="m406.51 471.84h.7a.36.36 0 0 0 .23-.05.41.41 0 0 0 .2-.12.55.55 0 0 0 .12-.19.46.46 0 0 0 .05-.23.66.66 0 0 0 -.17-.43.63.63 0 0 0 -.43-.17h-.7a.54.54 0 0 0 -.22 0 .33.33 0 0 0 -.17.12.38.38 0 0 0 -.12.17.54.54 0 0 0 -.05.22.58.58 0 0 0 .17.39l.11.08a.54.54 0 0 0 .28.08z"/></g><path d="m408.64 525.27a13.15 13.15 0 0 0 1.33-1.45c.46-.48.9-1 1.38-1.45a19.25 19.25 0 0 1 10.3-5.37c1.7-.29 1-3.06-.72-2.63a4.81 4.81 0 0 0 -1.2.49 1.13 1.13 0 0 0 .27 2 4.69 4.69 0 0 0 1.29.15l-.36-2.68a19.66 19.66 0 0 0 -8 3.49 19.21 19.21 0 0 0 -3.19 2.92 13.63 13.63 0 0 0 -1.37 1.83 6.79 6.79 0 0 0 -.92 2 .7.7 0 0 0 1.17.67z"/><path d="m406.47 526.14.36-.12h.09s.13 0 .05 0 0 0 0 0h.57.18l.35.11h.07l.17.09.16.11s.12.08 0 0 0 0 0 0a2.68 2.68 0 0 1 .3.28.61.61 0 0 0 .85 0 .62.62 0 0 0 0-.86 3.2 3.2 0 0 0 -3.64-.63.52.52 0 0 0 -.2.64.49.49 0 0 0 .59.29z"/><path d="m397.92 477.31a54 54 0 0 0 -9.07 12.26 12 12 0 0 0 -1 8.52c1 3.13 3.89 3.91 6.74 3 2.08-.68 3.16-3 3.72-5.08 1.57-5.91.3-12.62-.38-18.69" fill="#18c4ff"/><path d="m397.57 477a50.1 50.1 0 0 0 -8.39 10.41c-2 3.33-3.49 7.4-2.08 11.28 1.18 3.22 4.6 4.34 7.72 3.3 3.67-1.23 4.6-5.89 4.95-9.24.54-5.25-.49-10.41-1.22-15.58-.1-.73-1.35-.56-1.29.18.34 3.84.87 7.71.92 11.57.05 3.25-.06 7.77-2.4 10.34-2 2.2-6 1.64-7-1.21-1.25-3.45.16-7 1.89-10a61.13 61.13 0 0 1 7.62-10.34.49.49 0 0 0 -.7-.69z" fill="#18c4ff"/><path d="m396 483a28.79 28.79 0 0 1 -.16 6.56c-.14 1.09-.33 2.17-.52 3.25a26.64 26.64 0 0 0 -.57 3.29c0 .85 1.16.93 1.41.2a21.16 21.16 0 0 0 .67-3.46c.17-1.1.31-2.2.39-3.31a30.39 30.39 0 0 0 -.24-6.67c-.08-.55-1-.42-1 .14z" fill="#fff"/><path d="m394 499.36h.26a.57.57 0 0 0 .54-.14l.08-.11a.57.57 0 0 0 .08-.28.5.5 0 0 0 -.05-.21.42.42 0 0 0 -.11-.18.56.56 0 0 0 -.25-.14.48.48 0 0 0 -.29 0h-.26l-.13.05a.35.35 0 0 0 -.14.13.41.41 0 0 0 -.07.11.45.45 0 0 0 0 .2v.14l.05.12a.35.35 0 0 0 .13.14.4.4 0 0 0 .18.1z" fill="#fff"/><path d="m444.82 397.17-14.13 5.1-7.59-8.27c1.82 6.37-4.87 12.15-11.32 13.64s-13.47.71-19.46 3.52c-5.33 2.49-9 7.43-12.41 12.26-6.78 9.7-11.71 25.59-17.65 35.83 5.44-9.39-7.69-17.77-15.83-17.35-9.33.49-16.49 8.76-18.14 17.53a17.77 17.77 0 0 0 -.32 2.82c-.67 17.63 18.29 25.57 17.74 42-.72 21.34-31.57 71.71-43 88.76-5.91 8.84-11.37 18.27-13.64 28.77-3.69 17 3.45 34.48-.69 51.34-3.44 14-14.08 26.5-27.07 32.55-12.56 5.85-27.3 6.34-39.23 13.37-8.86 5.22-15.36 13.57-23.2 20.22-25.12 21.27-67 21.41-89.44-2.67-11.52-12.35-17.2-29.3-18.48-46.13a106 106 0 0 1 6.31-44.68c5-13.58 17.28-24 17.71-39.22.19-6.78-2-13.37-3.21-20.05-3.57-20.21 3.21-41.75 17-56.84 15.94-17.46 34.73-30.83 52.35-47 22.55-20.64 35.19-47.25 43.8-76.09 10.86-36.38 40.49-98.92 89.59-77.36 19-21.84 54.57-22.33 79.76-8.08s41.92 39.66 55.56 65.2c1.83 3.44 2.25 9.48-1.65 9.51"/><path d="m444.65 396.57c-4.07 1.4-8.15 2.79-12.22 4.21-1.23.43-1.27.53-2.24-.27a23.07 23.07 0 0 1 -2.16-2.36c-1.44-1.58-2.87-3.16-4.32-4.73a.87.87 0 0 0 -1.45.84c1.68 6.76-5.72 11.54-11.4 12.72-6.41 1.33-13.25.65-19.27 3.6-5.45 2.67-9.24 7.79-12.59 12.66-3.46 5-6 10.66-8.44 16.23-2.87 6.52-5.51 13.18-9.06 19.37l1.51.88c3.44-6.27-.46-12.31-6-15.65-6.07-3.65-13.24-4-19.33-.19a23.42 23.42 0 0 0 -10.6 20.12c.23 6.94 3.67 12.9 7.63 18.4s8.62 11 9.84 17.85c1 5.5-.62 11.28-2.29 16.49-4.42 13.74-11.26 26.79-18.26 39.41q-9.54 17.25-20.34 33.78c-4.66 7.07-9.27 14.07-12.47 21.91-4 9.73-4.61 19.61-3.77 30s2.58 21.28-.14 31.67a48.31 48.31 0 0 1 -13.93 22.83c-7.1 6.63-15.65 10.28-24.93 12.78-9.1 2.46-18.61 4.24-26.84 9.09-8.38 4.94-14.63 12.58-21.81 19a64.8 64.8 0 0 1 -20.68 12.41 69.55 69.55 0 0 1 -46.58.69c-38.88-13.61-46.88-61.63-36.65-96.89a68.51 68.51 0 0 1 5.23-13.46c2-3.71 4.31-7.22 6.53-10.78 4.43-7.13 8.38-14.75 8.4-23.35 0-5.06-1.23-10-2.31-14.92a70 70 0 0 1 -1.84-15 67.06 67.06 0 0 1 5.95-27.64c4.05-9 10-16.4 16.91-23.36 7.24-7.31 15-14 22.9-20.66 15.15-12.77 30.7-25.05 42.31-41.3 10.72-15 18.26-32 23.94-49.51 4.19-12.89 8.21-25.62 14.14-37.86 10.68-22 28.73-49.19 56.13-49.67a48.11 48.11 0 0 1 19.85 4.27 1 1 0 0 0 1.23-.15c15-17.08 39.77-20.55 60.92-15 24.32 6.35 42.94 25 56.79 45.15 4.1 6 7.88 12.17 11.45 18.47a90.35 90.35 0 0 1 4.89 9c.76 1.79 2.07 7-1.1 7.26-1.3.09-1.31 2.13 0 2 5-.35 4.39-6.74 3-10.09a85 85 0 0 0 -4.67-8.66q-2.58-4.59-5.32-9.08c-7.25-11.85-15.5-23.23-25.49-32.94-9.25-9-20.06-16.62-32.24-21a75.44 75.44 0 0 0 -35.51-4c-13 1.76-25.37 7.49-34.13 17.44l1.23-.15c-12.16-5.28-25.38-6.18-37.67-.77-11.69 5.15-20.91 14.77-28.25 25-8.03 11.16-14.13 23.61-19.13 36.34-5.69 14.46-9.32 29.58-15.53 43.86-7.56 17.37-17.82 33.57-31.49 46.78-15 14.47-32 26.63-47 41.17-7 6.77-13.45 13.87-18 22.52a70.83 70.83 0 0 0 -7.78 25.58 64.21 64.21 0 0 0 0 13.65c.56 5.07 1.9 10 2.87 15a34.56 34.56 0 0 1 0 15.51 47.49 47.49 0 0 1 -5.3 11.93c-4.38 7.49-9.38 14.44-12.23 22.72a107.38 107.38 0 0 0 -5.8 30.84c-.74 19 3.53 39.11 15.31 54.42 19.6 25.46 57.54 29.22 84.59 14 7.63-4.3 13.71-10.28 19.93-16.35a76.36 76.36 0 0 1 11.26-9.52 53.09 53.09 0 0 1 13.77-6.17c9.27-2.85 19-4.34 27.8-8.59a51.6 51.6 0 0 0 19.44-16.68 47.75 47.75 0 0 0 8.79-25.07c.59-10.52-1.64-20.94-1.65-31.44 0-10.91 3.47-20.9 8.81-30.31 3.37-5.93 7.32-11.52 11-17.28 7.58-12 14.75-24.2 21.31-36.75 6.22-11.9 12.63-24.48 15.57-37.68 1.25-5.58 1.35-11.06-.93-16.42-2.73-6.4-7.64-11.5-11.29-17.34-4.39-7-6.22-15.21-2.55-23 3.55-7.53 11.57-13.28 20.1-11 6.48 1.77 14.59 8 10.53 15.47a.87.87 0 0 0 1.51.88c6.44-11.23 9.84-24.05 17-34.88 3.79-5.72 8.33-11.73 15.17-13.82 6.46-2 13.6-.85 19.87-3.53 5.36-2.28 10.44-7.43 8.88-13.69l-1.44.85c2.52 2.74 5.07 5.47 7.61 8.21a.81.81 0 0 0 .81.21c4.71-1.72 9.38-3.53 14.07-5.3.74-.28.44-1.46-.33-1.2z"/><path d="m340.94 460.8c1.53-1.71 4.13-1.19 5.7.19a12.46 12.46 0 0 1 2.36 3c.68 1.12 1.5 2.45 1.19 3.82l1.59-.64a.73.73 0 0 1 -.11-.94 1 1 0 0 0 -1.39-1.39 2.7 2.7 0 0 0 .41 4.19 1.08 1.08 0 0 0 1.58-.65c.49-1.93-.41-3.78-1.4-5.39a12.93 12.93 0 0 0 -3.2-3.74 5.92 5.92 0 0 0 -4.15-1.22 4.46 4.46 0 0 0 -3.52 2.06c-.33.57.47 1.24.94.72z"/><g fill="#fff"><path d="m305.29 621.68a181.71 181.71 0 0 1 49.2 16.85c4.4 2.24 8.6 4.8 12.91 7.19a.81.81 0 0 0 .82-1.4 109.22 109.22 0 0 0 -11.47-6.56q-5.87-3-12-5.62a184.23 184.23 0 0 0 -24.53-8.39q-7.26-1.92-14.64-3.25c-.77-.14-1.1 1-.33 1.18z"/><path d="m372.92 650 3.29-2.17a.55.55 0 0 0 -.55-.95l-3.27 2.21a.53.53 0 0 0 -.19.72.53.53 0 0 0 .72.19z"/><path d="m379.54 655 3.85-2.71a.69.69 0 0 0 .24-.92.68.68 0 0 0 -.92-.24l-3.82 2.76a.66.66 0 0 0 -.23.88.65.65 0 0 0 .88.23z"/><path d="m488.43 751.72c-5.56-1.37-10.53 1.79-14.1 5.8-3.36 3.74-5.87 8.7-5.72 13.83a.77.77 0 0 0 1.53 0 20.54 20.54 0 0 1 5.19-12.62 22.27 22.27 0 0 1 5.37-4.59 11.64 11.64 0 0 1 7.6-1.42c.57.07.68-.86.13-1z"/><path d="m416 748.75c-4.38-3.81-1.84-10 1.89-13.14a16.47 16.47 0 0 1 14.54-3.51 13.2 13.2 0 0 1 9.33 9.56c1.17 5-1.56 10.18-5.93 12.68a14.4 14.4 0 0 1 -8.65 1.75c-2.8-.29-6.15-1.4-7.3-4.24-.31-.77-1.56-.47-1.29.36 1.91 5.77 10.34 6.36 15.22 4.84a14 14 0 0 0 9.92-12.79c.09-5.62-3.77-10.86-8.86-13-5.47-2.3-12.06-1.09-16.76 2.4-2.58 1.92-4.86 4.63-5.46 7.87a8.22 8.22 0 0 0 2.64 7.92c.49.4 1.2-.28.71-.7z"/><path d="m435.44 680a16 16 0 0 0 .84 14.52 15.4 15.4 0 0 0 12.81 7.33 15.05 15.05 0 0 0 8.63-2.28.76.76 0 0 0 -.76-1.31c-5.38 3-12.39 2.74-17.06-1.57a14.86 14.86 0 0 1 -3.5-16.29c.22-.54-.71-.94-1-.4z"/><path d="m395.14 690.31c-5.09-2.26-11.24-2.22-15.51 1.7a10.94 10.94 0 0 0 -1.57 14.29c3.17 4.84 9.25 7.47 14.8 8.24 5.25.72 11.42-1 13.68-6.24 2.69-6.31-2.37-12.69-7.46-15.87-.7-.44-1.57.63-.9 1.17 3.8 3 8.19 6.85 7.36 12.31-.78 5.11-6.23 7.39-10.86 7.19-4.89-.21-10.44-2.29-13.86-5.87s-4.41-8.9-1.3-12.94c3.61-4.7 10.06-5.13 15.21-3 .55.22.94-.71.41-1z"/><path d="m359.15 732.05c-4.71-2.15-10.76-2.1-14.66 1.68-3.49 3.38-4.46 9-1.47 13a21.19 21.19 0 0 0 6.35 5.21 21.79 21.79 0 0 0 8.24 3c5 .62 10.42-1.25 13.22-5.6 1.68-2.61 2-5.53.23-8.17-1.62-2.44-3.65-5.43-6.56-6.39-.83-.28-1.24.91-.57 1.35a18.53 18.53 0 0 1 4.95 4.92 8.25 8.25 0 0 1 1.65 3 5.91 5.91 0 0 1 -.83 3.86c-2.09 3.83-6.63 5.68-10.85 5.46-4.79-.26-9.66-2.88-13.11-6.13a8.3 8.3 0 0 1 -1.09-11.24c3.15-4.43 9.38-4.81 14.05-2.87.61.26 1.06-.8.45-1.07z"/><path d="m322.43 674.15a5.29 5.29 0 0 0 -6-.66 6.91 6.91 0 0 0 -3.5 5.91c-.36 5.24 3 10.38 7.21 13.2a16.26 16.26 0 0 0 15.56 1.12 12.44 12.44 0 0 0 6.17-5.38 9.37 9.37 0 0 0 -.17-7.85 12.15 12.15 0 0 0 -6.41-6.58c-3.14-1.27-6.65-1.12-10-.93-1.06.06-1.06 1.71 0 1.65 4.84-.27 10.13-.34 13.35 3.91a10.56 10.56 0 0 1 2.35 6.71c-.15 2.56-1.92 4.49-3.95 5.84a14.76 14.76 0 0 1 -21.9-7.19c-.84-2.38-1.16-5.28.19-7.54 1.25-2.09 4.36-3.21 6.34-1.46.51.45 1.25-.27.75-.75z"/><path d="m327.18 630.19c.51 5.95 5.36 10.06 10.81 11.69 4.79 1.42 13.23 2.32 15.55-3.51.28-.69-.79-1.08-1.16-.49-3 4.76-9.54 4.06-14.23 2.65s-9.25-5.1-9.85-10.34c-.08-.7-1.18-.72-1.12 0z"/><path d="m299.53 721.79c-5.17-2.83-11.49-3.53-16.9-1a15.92 15.92 0 0 0 -6 5c-1.57 2.19-3 5.26-1.93 7.95 2 5.1 8 8.16 13 9.55a20.84 20.84 0 0 0 8.79.94 12.39 12.39 0 0 0 6.74-3.53 12.22 12.22 0 0 0 .36-16.44c-.7-.81-1.86.36-1.17 1.17a10.56 10.56 0 0 1 .36 13.28 10.84 10.84 0 0 1 -5.66 3.69c-2.58.68-5.32.19-7.86-.42-4.46-1.09-8.91-3.18-11.79-6.87a5.49 5.49 0 0 1 -1.46-3.71 9.4 9.4 0 0 1 1.43-3.89 14.33 14.33 0 0 1 4.87-4.83c5.11-3.11 11.5-2.66 16.68 0 .66.35 1.25-.64.59-1z"/><path d="m245.38 773.19c1.09-.86 2-1.93 3.06-2.81a21.26 21.26 0 0 1 3.31-2.18 21.7 21.7 0 0 1 8.05-2.41c4.63-.44 12.54.38 14.08 5.78l.38-.93h-.58c-.79-.3-1.3 1-.57 1.36a2 2 0 0 0 1.78.16.83.83 0 0 0 .57-1c-1.72-5.88-9.64-7.36-14.91-6.92a23.26 23.26 0 0 0 -8.63 2.42 27 27 0 0 0 -7.25 5.85c-.45.48.21 1.09.71.71z"/><path d="m217.53 727.06c-.71 3.38 4.77 4 6.92 4.34 4 .7 8.2.9 12.07-.47a14.24 14.24 0 0 0 7.41-5.93 10.51 10.51 0 0 0 1.5-4.34c.15-1.37.21-3.28-1.12-4.08-.85-.51-1.59.78-.77 1.32s.31 3.11.09 3.92a10.21 10.21 0 0 1 -1.62 3.31 12.79 12.79 0 0 1 -6.31 4.56 22 22 0 0 1 -9 .76 46.69 46.69 0 0 1 -4.83-.78c-1.1-.24-3.59-.75-3.29-2.33.12-.66-.88-1-1-.28z"/><path d="m172.46 776a23.76 23.76 0 0 1 15.11-13.71 20.71 20.71 0 0 1 10.33-.64 7.07 7.07 0 0 1 4.83 3.3c.5.83.89 1.71 1.31 2.57l.81 1.71.41.86a.62.62 0 0 0 .7.58c-.88-.49-1.53.74-.77 1.31 1.14.85 2.19-.48 1.95-1.61a13.54 13.54 0 0 0 -1.19-2.6c-.47-1-.92-2-1.43-2.93-1.83-3.38-4.8-4.76-8.53-5.06a24.68 24.68 0 0 0 -18.3 6.61 23.94 23.94 0 0 0 -6.25 9.33c-.24.64.77.9 1 .28z"/><path d="m90.58 774.59a20.89 20.89 0 0 1 13.27-11.05 19.1 19.1 0 0 1 8.73-.45 7.71 7.71 0 0 1 4.56 2.42c1.07 1.23 1.88 2.65 2.94 3.89l-.12-1a1.84 1.84 0 0 1 -.85.76c-.93.46-.11 1.84.81 1.39a3.46 3.46 0 0 0 1.43-1.33.83.83 0 0 0 -.13-1c-1.13-1.33-2-2.89-3.19-4.16a8.76 8.76 0 0 0 -4.62-2.43 20.6 20.6 0 0 0 -9.62.36 22.05 22.05 0 0 0 -14.23 12c-.31.68.69 1.29 1 .6z"/><path d="m35.77 739.28a7.87 7.87 0 0 1 7.7 3.86 11.23 11.23 0 0 1 .59 9.43 19.71 19.71 0 0 1 -5.27 7.6c-2.38 2.25-5.52 4.34-8.81 2.66a.75.75 0 0 0 -.76 1.29c3.22 2.23 7.19.22 9.77-2a21.24 21.24 0 0 0 6.65-9.52c1.09-3.59.8-7.81-1.53-10.86a9.08 9.08 0 0 0 -8.65-3.56c-.74.12-.42 1.23.31 1.12z"/><path d="m88 715c-4.46-.94-9.39-1.43-13.6.7a11.77 11.77 0 0 0 -6.4 10.3 12 12 0 0 0 6.22 10.3 18.56 18.56 0 0 0 6.85 1.84 14.87 14.87 0 0 0 7.28-.7 13.23 13.23 0 0 0 5.51-4.87c1.52-2.17 2.71-4.74 2-7.43-.25-1-1.69-.56-1.49.41.47 2.21-.59 4.27-1.81 6a12.42 12.42 0 0 1 -4.21 4 11.72 11.72 0 0 1 -6.22 1 19.85 19.85 0 0 1 -6-1.18 10.16 10.16 0 0 1 -1.82-18.11c3.92-2.5 8.9-2.05 13.24-1.21.76.14 1.09-1 .32-1.17z"/><path d="m95.09 718a.66.66 0 0 0 0-1.31.66.66 0 0 0 0 1.31z"/><path d="m52.82 690.58c5.23 3.68 12.4.43 16.53-3.45a14.78 14.78 0 0 0 4.65-8.39 11.74 11.74 0 0 0 -.21-4.61c-.45-1.78-1.32-3.44-1.38-5.31 0-1-1.6-1-1.56 0 .12 3 1.92 5.6 1.78 8.67a12.72 12.72 0 0 1 -3.79 8.16c-3.67 3.78-10.45 7.31-15.45 4-.6-.4-1.14.56-.56 1z"/><path d="m86 645a7.77 7.77 0 0 0 4.45 5.78.69.69 0 0 0 .92-.24.68.68 0 0 0 -.24-.91 6.55 6.55 0 0 1 -3.87-5 .67.67 0 0 0 -.81-.46.66.66 0 0 0 -.45.8z"/><path d="m293 638.15a18.77 18.77 0 0 0 11.37-15.41c.09-.86-1.25-.85-1.33 0a17.83 17.83 0 0 1 -10.47 14.38c-.57.26-.15 1.27.43 1z"/></g><path d="m363.9 446.31c10-.72 19.91-1.62 29.81-2.94s19.89-2.61 29.85-3.85q8.38-1 16.78-2.07l-1-7.32-3.55 1.29a3.91 3.91 0 0 0 -2.62 4.61 101.85 101.85 0 0 1 .86 12.21c0 1.7 0 3.4-.15 5.09 0 .39-.06.77-.11 1.15l-.06.57c.08-.64 0 0 0 .11-.14.8-.28 1.6-.48 2.4a23.47 23.47 0 0 1 -.68 2.31c-.12.35-.25.7-.39 1 .23-.55-.28.55-.39.77a18.65 18.65 0 0 1 -1.14 1.92l-.33.47c-.37.52.32-.37-.09.13s-.59.69-.91 1a22 22 0 0 1 -1.87 1.74l-.45.36c.06-.05.37-.28 0 0s-.73.53-1.11.78c-.7.48-1.43.92-2.17 1.33s-1.8.93-2.19 1.09a29.32 29.32 0 0 1 -4.6 1.39c-.39.08-.77.15-1.16.21s0 0 .05 0l-.77.07a21.38 21.38 0 0 1 -2.53.07c-.45 0-.9 0-1.35-.07-.7-.06.16.05-.53-.07a24.19 24.19 0 0 1 -2.52-.58c-.65-.19-1.27-.41-1.9-.65.61.23 0 0-.28-.13s-.76-.37-1.13-.58a18.33 18.33 0 0 1 -1.57-1c-.1-.07-.92-.69-.59-.42s-.41-.36-.54-.47q-.72-.65-1.38-1.35c-.2-.21-.39-.43-.58-.66s-.68-.86-.26-.28a25.34 25.34 0 0 1 -2.11-3.4c-.28-.53-.53-1.07-.78-1.62s.21.54 0 0c-.06-.14-.12-.28-.17-.43-.12-.33-.24-.67-.35-1a41.31 41.31 0 0 1 -1.17-4.5q-.21-1.08-.39-2.16c0-.16 0-.31-.07-.47-.15-1 0 .49 0-.1 0-.36-.09-.72-.13-1.09-.17-1.56-.28-3.12-.35-4.68 0-.72-.05-1.44-.06-2.17a11.56 11.56 0 0 0 -.17-1.94 3.34 3.34 0 0 0 -.1-.43c-.19-.67.19-.78-.12.7a3.54 3.54 0 0 0 -6.44-2.72c-1.06 1.53-1 3.71-.87 5.47.09 1.51.22 3 .4 4.52a55.54 55.54 0 0 0 1.9 9.74c1.9 6.25 5.08 11.91 10.45 15.78 6.31 4.55 14.76 5.33 22.08 3.13 8.05-2.42 15-7.82 18.14-15.73a35.87 35.87 0 0 0 2.08-12.84 108.5 108.5 0 0 0 -1.24-16l-2.61 4.6 3.55-1.32a3.77 3.77 0 0 0 2.67-4.09c-.25-1.64-1.8-3.48-3.67-3.24-20.13 2.6-40.28 5.18-60.3 8.56-5.62.95-11.17 2.14-16.74 3.37-2.43.53-1.94 4.57.6 4.39z" fill="#18c4ff"/><path d="m735.42 521.14a341.36 341.36 0 0 0 -19.73 36.25c-2 4.27-3.94 8.71-4.28 13.42 1.62 1.21 3.82-.37 5.17-1.87a149 149 0 0 0 26.42-41.69c1-2.28 1.86-4.85 1-7.16s-4.49-3.47-5.84-1.4"/><path d="m734.86 520.82q-7.67 12-14.22 24.66c-2.17 4.19-4.28 8.43-6.27 12.72-1.86 4-3.48 8.15-3.86 12.61a.88.88 0 0 0 .45.78c1.9 1.21 4 .12 5.48-1.21a51 51 0 0 0 5.22-6 149.86 149.86 0 0 0 9.49-12.92 148.27 148.27 0 0 0 8.24-14.24q1.79-3.53 3.39-7.14c1.05-2.38 2.32-4.88 2.49-7.52a5.33 5.33 0 0 0 -3-5.47 3.73 3.73 0 0 0 -4.77 1.16c-.48.73.66 1.64 1.23.94 1-1.24 2.86-.73 3.86.31 1.61 1.7.7 4.54 0 6.43a115.78 115.78 0 0 1 -5.76 12.31 148.51 148.51 0 0 1 -14.51 22.44q-2.31 2.92-4.76 5.75c-1.14 1.3-3.58 4.85-5.65 3.55l.45.78c.36-4.59 2.19-8.86 4.11-13s3.94-8.29 6-12.37c4.19-8.16 8.72-16.15 13.5-24 .44-.72-.66-1.35-1.11-.65z"/><path d="m704.6 536.9a341.36 341.36 0 0 0 36.25 19.73c4.28 2 8.71 3.94 13.42 4.27 1.21-1.62-.37-3.81-1.87-5.16a148.59 148.59 0 0 0 -41.69-26.45c-2.28-1-4.85-1.86-7.16-1s-3.47 4.49-1.4 5.84"/><path d="m704.28 537.45q12 7.68 24.66 14.22c4.19 2.18 8.43 4.29 12.72 6.27 4 1.87 8.15 3.49 12.61 3.87a1 1 0 0 0 .79-.45c1.21-1.9.12-4-1.22-5.49a51.11 51.11 0 0 0 -6-5.22 151.89 151.89 0 0 0 -12.84-9.48 149.25 149.25 0 0 0 -14.24-8.25q-3.53-1.78-7.14-3.38c-2.38-1-4.88-2.32-7.52-2.49a5.34 5.34 0 0 0 -5.47 3 3.73 3.73 0 0 0 1.16 4.77c.73.48 1.64-.67 1-1.23-1.25-1-.74-2.86.3-3.86 1.7-1.62 4.54-.7 6.43 0a113.78 113.78 0 0 1 12.31 5.75 148.07 148.07 0 0 1 22.36 14.52c2 1.54 3.87 3.12 5.75 4.76 1.31 1.13 4.85 3.58 3.55 5.65l.78-.45c-4.59-.36-8.86-2.2-13-4.11s-8.29-3.95-12.37-6c-8.16-4.2-16.15-8.73-24-13.51-.71-.43-1.35.67-.65 1.11z"/><g fill="#fff"><path d="m595 613.79c-.06 1.66.86 3.4 1.45 4.92l1.62 4.21c.54 1.4 1.08 2.81 1.65 4.2.75 1.79 1.33 3.88 2.69 5.3a3.37 3.37 0 0 0 3.68.7 3.33 3.33 0 0 0 2.07-3.08c-.14-2-1.22-3.81-2.06-5.61-.64-1.37-1.32-2.71-2-4l-2-4c-.72-1.43-1.39-3.33-2.64-4.39a2.63 2.63 0 0 0 -4.43 1.84z"/><path d="m610.93 616.81a28.24 28.24 0 0 0 -5.68 1.34c-1.76.49-3.5 1-5.23 1.58a51.14 51.14 0 0 1 -5 1.43c-1.83.4-4.64 0-6.06 2.28a3.15 3.15 0 0 0 0 3.22 4 4 0 0 0 2.19 1.73 6 6 0 0 0 2.56 0 20.25 20.25 0 0 0 2.75-.63 51 51 0 0 0 5.42-2.11c1.72-.73 3.43-1.48 5.11-2.3a29.85 29.85 0 0 0 5.41-2.89c1.45-1.14.23-3.7-1.5-3.61z"/></g></svg>