<?xml version="1.0" ?><svg id="Layer_1" style="enable-background:new 0 0 64 64;" version="1.1" viewBox="0 0 64 64" xml:space="preserve" xmlns="http://www.w3.org/2000/svg" xmlns:xlink="http://www.w3.org/1999/xlink"><style type="text/css">
	.st0{fill:none;stroke:#126BB5;stroke-width:2;stroke-linecap:round;stroke-linejoin:round;stroke-miterlimit:10;}
	.st1{fill:none;stroke:#00B1E4;stroke-width:2;stroke-linecap:round;stroke-linejoin:round;stroke-miterlimit:10;}
	.st2{fill:none;stroke:#00B1E4;stroke-width:2;stroke-linejoin:round;stroke-miterlimit:10;}
	.st3{fill:#FFFFFF;stroke:#00B1E4;stroke-width:2;stroke-linecap:round;stroke-linejoin:round;stroke-miterlimit:10;}
	.st4{fill:#00B1E4;}
	.st5{fill:none;stroke:#126BB5;stroke-width:2;stroke-miterlimit:10;}
	.st6{fill:none;stroke:#00B1E4;stroke-width:2;stroke-miterlimit:10;}
	.st7{fill:none;stroke:#2B3088;stroke-width:2;stroke-linejoin:round;stroke-miterlimit:10;}
	.st8{fill:none;stroke:#126BB5;stroke-width:2;stroke-linecap:round;stroke-miterlimit:10;}
	.st9{fill:none;stroke:#00B1E4;stroke-width:2;stroke-linecap:round;stroke-miterlimit:10;}
</style><g><path class="st2" d="M36.7,38h-9.3c-0.2,0-0.3-0.1-0.3-0.3v-7.3c0-0.2,0.1-0.3,0.3-0.3h9.3c0.2,0,0.3,0.1,0.3,0.3v7.3   C37,37.9,36.9,38,36.7,38z"/><path class="st2" d="M35,30h-6c-0.2,0-0.3-0.1-0.3-0.3v-1.4c0-1.8,1.5-3.3,3.3-3.3H32c1.8,0,3.3,1.5,3.3,3.3v1.4   C35.3,29.9,35.2,30,35,30z"/><line class="st1" x1="32" x2="32" y1="34" y2="34"/></g><g><polyline class="st0" points="52,19 45,19 45,12  "/><polyline class="st0" points="48,23 41,23 41,16  "/><polyline class="st0" points="19,12 19,19 12,19  "/><polyline class="st0" points="23,16 23,23 16,23  "/><polyline class="st0" points="45,52 45,45 52,45  "/><polyline class="st0" points="41,48 41,41 48,41  "/><polyline class="st0" points="12,45 19,45 19,52  "/><polyline class="st0" points="16,41 23,41 23,48  "/></g></svg>